# xmcd
#
# Track frame offsets: 
#        150
#        14651
#        32346
#        44855
#        62010
#        73939
#        89426
#        105596
#        122198
#        139233
#        153866
#        172319
#        182805
#
# Disc length: 2747 seconds
#
# Revision: 1
# Processed by: cddbd v1.5.2PL0 Copyright (c) Steve Scherf et al.
# Submitted via: ExactAudioCopy v0.99pb4
#
DISCID=c00ab90d
DTITLE=Steve Wariner - This Real Life
DYEAR=2005
DGENRE=
TTITLE0=Quick As I Can Make It
TTITLE1=A Little Daylight (Lovin' You)
TTITLE2=That's Just What Happened To Me
TTITLE3=Real Tough Job
TTITLE4=Honky Tonk Work Of Art
TTITLE5=Right Then Right There
TTITLE6=She Thinks I Am
TTITLE7=Hoedown In Motown
TTITLE8=My Old Friend
TTITLE9=When I Think Of You
TTITLE10=This Real Life
TTITLE11=Reeding Out Loud (Instrumental)
TTITLE12=Holes In The Floor Of Heaven
EXTD=www.stevewariner.com
EXTT0=
EXTT1=
EXTT2=
EXTT3=
EXTT4=
EXTT5=
EXTT6=
EXTT7=
EXTT8=
EXTT9=
EXTT10=
EXTT11=
EXTT12=
PLAYORDER=
